# xmcd CD database file
#
# Track frame offsets:
#	183
#	13008
#	25083
#	39183
#	50808
#	63183
#	73833
#	89358
#	101583
#	113583
#	125133
#	133533
#	140283
#	149358
#	159633
#	198258
#	209358
#	217383
#	231033
#	240933
#	252483
#	266733
#	271608
#	276858
#	294183
#	307533
#	321933
#
# Disc length: 4429 seconds
#
# Revision: 0
# Processed by: cddbd v1.5.1PL0 Copyright (c) Steve Scherf et al.
# Submitted via: CDex 1.51
#
DISCID=8c114b1b
DTITLE=Sonoton Authentic Series - SAS 022 - Authentic Japan Vol 2  Descriptive moods and Gagaku
DYEAR=1900
DGENRE=Contentum
TTITLE0=In bloom
TTITLE1=Early summer rain
TTITLE2=Snowstorm
TTITLE3=Kinuta
TTITLE4=Plum blossoms
TTITLE5=Faint moonlight
TTITLE6=Gathering clouds
TTITLE7=The stone garden
TTITLE8=Wandering monk
TTITLE9=Early spring
TTITLE10=Ripples
TTITLE11=After the rain
TTITLE12=Moonrise
TTITLE13=Midare
TTITLE14=Itotake
TTITLE15=Etenraku 1
TTITLE16=Etenraku 2
TTITLE17=Battoh 1
TTITLE18=Battoh 2
TTITLE19=Gakkaen
TTITLE20=Kitoku 1
TTITLE21=Kitoku 2
TTITLE22=Kitoku 3
TTITLE23=Koromogage
TTITLE24=Shochoshi
TTITLE25=Bairo 1
TTITLE26=Bairo 2
EXTD=
EXTT0=
EXTT1=
EXTT2=
EXTT3=
EXTT4=
EXTT5=
EXTT6=
EXTT7=
EXTT8=
EXTT9=
EXTT10=
EXTT11=
EXTT12=
EXTT13=
EXTT14=
EXTT15=
EXTT16=
EXTT17=
EXTT18=
EXTT19=
EXTT20=
EXTT21=
EXTT22=
EXTT23=
EXTT24=
EXTT25=
EXTT26=
PLAYORDER=
